<?xml version="1.0" encoding="UTF-8" standalone="no"?>
<!-- Created with Inkscape (http://www.inkscape.org/) -->

<svg
   xmlns:dc="http://purl.org/dc/elements/1.1/"
   xmlns:cc="http://creativecommons.org/ns#"
   xmlns:rdf="http://www.w3.org/1999/02/22-rdf-syntax-ns#"
   xmlns:svg="http://www.w3.org/2000/svg"
   xmlns="http://www.w3.org/2000/svg"
   xmlns:sodipodi="http://sodipodi.sourceforge.net/DTD/sodipodi-0.dtd"
   xmlns:inkscape="http://www.inkscape.org/namespaces/inkscape"
   id="svg2"
   version="1.1"
   inkscape:version="0.91 r13725"
   xml:space="preserve"
   width="3543.3125"
   height="5314.9624"
   viewBox="0 0 3543.3125 5314.9624"
   sodipodi:docname="logo.svg"><metadata
     id="metadata8"><rdf:RDF><cc:Work
         rdf:about=""><dc:format>image/svg+xml</dc:format><dc:type
           rdf:resource="http://purl.org/dc/dcmitype/StillImage" /><dc:title></dc:title></cc:Work></rdf:RDF></metadata><defs
     id="defs6"><clipPath
       clipPathUnits="userSpaceOnUse"
       id="clipPath20"><path
         d="m 0,0 2834.646,0 0,4251.968 L 0,4251.968 0,0 Z"
         id="path22"
         inkscape:connector-curvature="0" /></clipPath><clipPath
       clipPathUnits="userSpaceOnUse"
       id="clipPath34"><path
         d="m 0,0 2834.646,0 0,4251.968 L 0,4251.968 0,0 Z"
         id="path36"
         inkscape:connector-curvature="0" /></clipPath><clipPath
       clipPathUnits="userSpaceOnUse"
       id="clipPath52"><path
         d="m 0,0 2834.646,0 0,4251.968 L 0,4251.968 0,0 Z"
         id="path54"
         inkscape:connector-curvature="0" /></clipPath><clipPath
       clipPathUnits="userSpaceOnUse"
       id="clipPath68"><path
         d="m 0,0 2834.646,0 0,4251.968 L 0,4251.968 0,0 Z"
         id="path70"
         inkscape:connector-curvature="0" /></clipPath><clipPath
       clipPathUnits="userSpaceOnUse"
       id="clipPath88"><path
         d="m 0,0 2834.646,0 0,4251.968 L 0,4251.968 0,0 Z"
         id="path90"
         inkscape:connector-curvature="0" /></clipPath><clipPath
       clipPathUnits="userSpaceOnUse"
       id="clipPath120"><path
         d="m 0,0 2834.646,0 0,4251.968 L 0,4251.968 0,0 Z"
         id="path122"
         inkscape:connector-curvature="0" /></clipPath><clipPath
       clipPathUnits="userSpaceOnUse"
       id="clipPath204"><path
         d="m 0,0 2834.646,0 0,4251.968 L 0,4251.968 0,0 Z"
         id="path206"
         inkscape:connector-curvature="0" /></clipPath><clipPath
       clipPathUnits="userSpaceOnUse"
       id="clipPath226"><path
         d="m 0,0 2834.646,0 0,4251.968 L 0,4251.968 0,0 Z"
         id="path228"
         inkscape:connector-curvature="0" /></clipPath><clipPath
       clipPathUnits="userSpaceOnUse"
       id="clipPath244"><path
         d="m 0,0 2834.646,0 0,4251.968 L 0,4251.968 0,0 Z"
         id="path246"
         inkscape:connector-curvature="0" /></clipPath><clipPath
       clipPathUnits="userSpaceOnUse"
       id="clipPath258"><path
         d="m 0,0 2834.646,0 0,4251.968 L 0,4251.968 0,0 Z"
         id="path260"
         inkscape:connector-curvature="0" /></clipPath><clipPath
       clipPathUnits="userSpaceOnUse"
       id="clipPath296"><path
         d="m 0,0 2834.646,0 0,4251.968 L 0,4251.968 0,0 Z"
         id="path298"
         inkscape:connector-curvature="0" /></clipPath></defs><sodipodi:namedview
     pagecolor="#ffffff"
     bordercolor="#666666"
     borderopacity="1"
     objecttolerance="10"
     gridtolerance="10"
     guidetolerance="10"
     inkscape:pageopacity="0"
     inkscape:pageshadow="2"
     inkscape:window-width="2425"
     inkscape:window-height="1652"
     id="namedview4"
     showgrid="false"
     inkscape:zoom="0.1255905"
     inkscape:cx="1698.6315"
     inkscape:cy="889.62079"
     inkscape:window-x="0"
     inkscape:window-y="27"
     inkscape:window-maximized="0"
     inkscape:current-layer="g10" /><g
     id="g10"
     inkscape:groupmode="layer"
     inkscape:label="logo"
     transform="matrix(1.25,0,0,-1.25,0,5314.9625)"><g
       id="g4672"
       transform="translate(0,-84.8)"><path
         d="m 535.1924,1937.6062 0,89.821 335.345,0 0,-89.821 -116.025,0 0,-455.85 -101.799,0 0,455.85 -117.521,0 z"
         style="fill:#8d198f;fill-opacity:1;fill-rule:nonzero;stroke:none"
         id="path14"
         inkscape:connector-curvature="0" /><path
         d="m 996.2783,2027.427 0,-175.897 c 7.481,16.458 19.459,29.057 35.925,37.797 16.471,8.715 33.431,13.098 50.904,13.098 14.467,0 27.192,-2.616 38.173,-7.866 10.972,-5.232 20.216,-12.345 27.696,-21.331 7.486,-8.976 13.098,-19.458 16.843,-31.436 3.74,-11.978 5.612,-24.699 5.612,-38.174 l 0,-321.862 -90.577,0 0,273.951 c 0,6.991 -0.127,14.235 -0.363,21.707 -0.258,7.498 -1.505,14.603 -3.749,21.34 -2.24,6.728 -5.866,12.223 -10.85,16.466 -5,4.235 -11.977,6.361 -20.963,6.361 -24.45,0 -39.175,-9.983 -44.158,-29.94 -2.511,-8.487 -3.876,-16.589 -4.125,-24.323 -0.254,-7.735 -0.368,-15.854 -0.368,-24.332 l 0,-261.23 -95.065,0 0,545.671 95.065,0 z"
         style="fill:#8d198f;fill-opacity:1;fill-rule:nonzero;stroke:none"
         id="path26"
         inkscape:connector-curvature="0" /><path
         inkscape:connector-curvature="0"
         id="path28"
         style="fill:#8d198f;fill-opacity:1;fill-rule:nonzero;stroke:none"
         d="m 1330.862,1942.086 -93.565,0 0,85.341 93.565,0 0,-85.341 z m 0,-460.33 -93.565,0 0,409.435 93.565,0 0,-409.435 z" /><path
         d="m 1468.9707,1592.1555 c 0.744,-9.23 2.616,-17.586 5.608,-25.076 2.997,-7.48 7.481,-13.727 13.47,-18.715 5.989,-4.986 14.467,-7.471 25.456,-7.471 10.968,0 21.073,3.097 30.308,9.353 9.23,6.229 13.854,15.582 13.854,28.068 0,11.47 -4.243,21.961 -12.725,31.436 -8.487,9.467 -19.218,18.706 -32.185,27.692 -12.992,8.985 -26.83,18.085 -41.546,27.324 -14.725,9.222 -28.575,19.703 -41.542,31.436 -12.984,11.716 -23.711,25.076 -32.189,40.046 -8.487,14.979 -12.726,32.434 -12.726,52.4 0,18.96 3.487,35.426 10.487,49.399 6.972,13.972 16.33,25.819 28.063,35.557 11.724,9.729 25.32,16.956 40.794,21.707 15.46,4.742 31.935,7.114 49.407,7.114 44.91,0 77.34,-11.733 97.302,-35.19 19.962,-23.457 29.944,-57.134 29.944,-101.038 l -83.084,0 c 0,7.971 -0.879,15.828 -2.624,23.58 -1.755,7.716 -4.611,14.698 -8.609,20.954 -3.99,6.238 -9.105,11.235 -15.343,14.97 -6.242,3.736 -13.596,5.618 -22.078,5.618 -9.992,0 -18.711,-2.888 -26.196,-8.61 -7.493,-5.74 -11.23,-14.104 -11.23,-25.084 0,-13.474 4.358,-25.329 13.094,-35.557 8.731,-10.22 19.581,-19.835 32.561,-28.812 12.975,-8.986 27.061,-17.954 42.293,-26.948 15.22,-8.986 29.315,-19.091 42.299,-30.325 12.958,-11.217 23.821,-24.315 32.557,-39.285 8.723,-14.97 13.098,-32.688 13.098,-53.152 0,-20.465 -3.627,-37.806 -10.854,-52.015 -7.244,-14.218 -16.965,-25.828 -29.196,-34.805 -12.233,-8.986 -26.572,-15.469 -43.038,-19.467 -16.462,-3.99 -33.677,-5.994 -51.644,-5.994 -24.966,0 -45.789,3.255 -62.496,9.73 -16.729,6.492 -30.212,15.845 -40.427,28.077 -10.241,12.222 -17.476,27.446 -21.712,45.662 -4.243,18.199 -6.364,39.294 -6.364,63.249 l 86.084,0 c 0,-7.988 0.377,-16.598 1.129,-25.828"
         style="fill:#8d198f;fill-opacity:1;fill-rule:nonzero;stroke:none"
         id="path40"
         inkscape:connector-curvature="0" /><path
         d="m 1810.2832,1563.344 c 7.235,-5.495 16.847,-8.242 28.82,-8.242 l 0,-73.346 c -7.988,-0.498 -15.722,-0.997 -23.203,-1.496 -7.49,-0.49 -14.974,-1.006 -22.455,-1.505 -10.482,0 -20.969,1.129 -31.441,3.378 -10.478,2.231 -19.835,5.853 -28.073,10.84 -8.228,4.987 -14.965,11.601 -20.206,19.844 -5.237,8.233 -7.861,18.338 -7.861,30.307 -1.002,5.495 -1.496,10.858 -1.496,16.099 l 0,16.099 0,246.259 -38.178,0 0,69.61 39.674,0 0,111.528 92.817,0 0,-111.528 38.917,0 0,-69.61 -38.917,0 0,-187.875 0.748,-42.67 c 0,-12.993 3.618,-22.215 10.854,-27.692"
         style="fill:#8d198f;fill-opacity:1;fill-rule:nonzero;stroke:none"
         id="path44"
         inkscape:connector-curvature="0" /><path
         inkscape:connector-curvature="0"
         id="path46"
         style="fill:#8d198f;fill-opacity:1;fill-rule:nonzero;stroke:none"
         d="m 1971.595,1481.756 -93.574,0 0,545.671 93.574,0 0,-545.671 z" /><path
         d="m 2300.1807,1559.2229 c -4.488,-18.715 -12.104,-34.56 -22.822,-47.535 -10.744,-12.975 -24.835,-23.081 -42.299,-30.325 -17.473,-7.219 -38.917,-10.841 -64.36,-10.841 -43.922,0 -77.984,11.479 -102.184,34.429 -24.205,22.958 -37.557,56.897 -40.046,101.807 -1.011,14.97 -1.754,29.941 -2.248,44.911 -0.508,14.961 -0.744,29.94 -0.744,44.91 0,27.438 1.238,53.52 3.745,78.219 2.489,24.691 8.609,46.529 18.334,65.498 9.733,18.96 24.332,34.052 43.786,45.286 19.463,11.235 45.903,16.843 79.357,16.843 42.403,0 75.708,-12.109 99.921,-36.301 24.197,-24.218 36.796,-57.518 37.802,-99.926 0.49,-15.985 0.993,-31.568 1.491,-46.792 0.496,-15.224 0.748,-30.815 0.748,-46.791 l -186.374,0 c 0,-4.471 -0.13,-8.977 -0.384,-13.466 -0.254,-4.488 -0.368,-9.23 -0.368,-14.217 0,-5.005 0.114,-9.738 0.368,-14.218 0.254,-4.506 0.384,-9.248 0.384,-14.226 0.486,-7.481 1.366,-15.6 2.617,-24.332 1.238,-8.732 3.364,-16.834 6.352,-24.332 3.001,-7.481 7.362,-13.728 13.107,-18.715 5.73,-4.996 13.591,-7.472 23.575,-7.472 10.481,0 19.471,2.87 26.952,8.609 7.477,5.731 12.463,13.58 14.961,23.571 2.494,7.979 4.239,15.968 5.25,23.956 0.993,7.979 1.496,15.968 1.496,23.955 l 88.333,0 c 0,-22.966 -2.257,-43.79 -6.75,-62.505 m -86.071,208.471 c 0,7.97 -0.639,15.714 -1.877,23.195 -1.256,7.498 -3.491,14.104 -6.733,19.843 -3.255,5.722 -7.866,10.35 -13.854,13.842 -5.989,3.49 -13.729,5.24 -23.203,5.24 -9.992,0 -18.838,-2.616 -26.573,-7.848 -7.738,-5.249 -12.598,-12.862 -14.598,-22.836 -1.001,-3.49 -1.754,-7.997 -2.239,-13.483 -0.508,-5.494 -1.002,-11.093 -1.497,-16.842 -0.507,-5.731 -0.752,-11.217 -0.752,-16.466 l 0,-13.089 91.326,0 0,28.444 z"
         style="fill:#8d198f;fill-opacity:1;fill-rule:nonzero;stroke:none"
         id="path58"
         inkscape:connector-curvature="0" /><path
         d="m 804.9482,987.7771 0,-56.766 -207.898,0 0,-172.511 193.89,0 0,-53.817 -193.89,0 0,-198.313 210.107,0 0,-56.031 -268.347,0 0,537.438 266.138,0 z"
         style="fill:#8d198f;fill-opacity:1;fill-rule:nonzero;stroke:none"
         id="path62"
         inkscape:connector-curvature="0" /><path
         d="m 920.6846,852.1272 0,-50.134 c 9.825,19.651 23.96,34.28 42.391,43.869 18.429,9.581 38.702,14.375 60.82,14.375 19.651,0 35.501,-3.079 47.549,-9.221 12.039,-6.151 21.497,-14.629 28.383,-25.435 6.877,-10.814 11.671,-23.474 14.375,-37.963 2.695,-14.498 4.295,-30.107 4.795,-46.809 l 0,-290.47 -56.032,0 0,294.153 c 0,18.173 -4.308,33.545 -12.9,46.074 -8.606,12.538 -23.221,18.803 -43.865,18.803 -11.794,0 -22.74,-2.468 -32.806,-7.376 -10.079,-4.917 -18.798,-11.313 -26.174,-19.17 -7.371,-7.865 -13.154,-16.956 -17.323,-27.272 -4.183,-10.324 -6.265,-21.138 -6.265,-32.442 l 0,-272.77 -56.031,0 0,401.788 53.083,0 z"
         style="fill:#8d198f;fill-opacity:1;fill-rule:nonzero;stroke:none"
         id="path74"
         inkscape:connector-curvature="0" /><path
         d="m 1265.6934,375.5149 c 13.754,-7.621 28.496,-11.427 44.231,-11.427 16.222,0 29.364,3.439 39.443,10.316 10.066,6.894 17.936,15.854 23.593,26.913 5.643,11.059 9.454,23.343 11.426,36.861 1.955,13.509 2.949,26.904 2.949,40.177 0,3.929 -0.127,7.49 -0.368,10.692 -0.253,3.184 -0.372,6.509 -0.372,9.947 -18.185,-35.88 -47.434,-53.816 -87.729,-53.816 -28.51,0 -51.123,7.375 -67.825,22.118 -16.711,14.742 -29.119,33.046 -37.229,54.919 -8.11,21.865 -13.268,45.585 -15.481,71.141 -2.21,25.557 -3.317,49.145 -3.317,70.774 0,20.648 1.715,42.513 5.162,65.62 3.43,23.09 9.826,44.473 19.165,64.133 9.332,19.651 22.233,35.872 38.704,48.655 16.461,12.783 37.967,19.169 64.508,19.169 8.846,0 17.81,-1.233 26.91,-3.683 9.085,-2.467 17.437,-6.151 25.066,-11.059 7.612,-4.917 14.248,-10.946 19.905,-18.059 5.643,-7.13 9.952,-15.372 12.901,-24.699 l 0,47.92 54.552,0 0,-383.353 c 0,-21.129 -2.708,-41.034 -8.106,-59.723 -5.416,-18.671 -13.768,-34.883 -25.067,-48.655 -11.313,-13.754 -25.435,-24.691 -42.391,-32.801 -16.956,-8.111 -37.229,-12.17 -60.82,-12.17 -14.744,0 -29.005,2.1 -42.759,6.273 -13.767,4.182 -26.174,10.446 -37.229,18.794 -11.058,8.364 -19.909,18.688 -26.541,30.963 -6.636,12.293 -9.952,26.301 -9.952,42.023 l 54.552,0 c 0.98,-17.691 8.351,-30.342 22.119,-37.963 m -29.49,242.173 c 0.485,-10.814 1.474,-23.474 2.948,-37.963 1.475,-14.506 4.668,-28.147 9.585,-40.921 4.909,-12.783 11.912,-23.588 21.012,-32.434 9.086,-8.845 21.252,-13.272 36.494,-13.272 15.722,0 28.623,3.429 38.702,10.324 10.066,6.877 18.063,15.591 23.96,26.169 5.897,10.561 10.066,22.486 12.534,35.758 2.449,13.265 3.924,26.284 4.422,39.066 0.481,9.826 0.735,19.284 0.735,28.383 l 0,28.384 c 0,13.272 -0.494,28.627 -1.474,46.082 -0.989,17.438 -3.937,34.026 -8.845,49.758 -4.918,15.722 -12.534,29.126 -22.854,40.177 -10.32,11.059 -24.826,16.588 -43.498,16.588 -3.936,0 -7.992,-0.367 -12.161,-1.102 -4.182,-0.735 -8.237,-2.1 -12.166,-4.06 -12.293,-3.937 -21.873,-12.415 -28.75,-25.425 -6.89,-13.037 -11.925,-27.535 -15.115,-43.502 -3.202,-15.976 -5.044,-32.066 -5.529,-48.287 -0.494,-16.222 -0.735,-29.985 -0.735,-41.28 l 0,-16.221 c 0,-5.416 0.241,-10.814 0.735,-16.222"
         style="fill:#8d198f;fill-opacity:1;fill-rule:nonzero;stroke:none"
         id="path78"
         inkscape:connector-curvature="0" /><path
         inkscape:connector-curvature="0"
         id="path80"
         style="fill:#8d198f;fill-opacity:1;fill-rule:nonzero;stroke:none"
         d="m 1563.534,450.34 -56.031,0 0,537.438 56.031,0 0,-537.438 z" /><path
         inkscape:connector-curvature="0"
         id="path82"
         style="fill:#8d198f;fill-opacity:1;fill-rule:nonzero;stroke:none"
         d="m 1689.595,914.79 -58.24,0 0,72.987 58.24,0 0,-72.987 z m 0,-464.45 -58.24,0 0,401.788 58.24,0 0,-401.788 z" /><path
         d="m 1800.9082,557.239 c 0,-22.617 7.122,-39.442 21.379,-50.501 14.253,-11.06 31.943,-16.589 53.082,-16.589 18.671,0 34.766,5.643 48.288,16.956 13.513,11.304 20.272,26.782 20.272,46.442 0,18.68 -4.676,33.291 -14.007,43.869 -9.34,10.56 -21.135,19.17 -35.387,25.802 -14.258,6.632 -29.612,12.651 -46.074,18.059 -16.471,5.406 -31.826,12.17 -46.079,20.28 -14.257,8.102 -26.055,18.908 -35.387,32.434 -9.34,13.509 -14.003,31.813 -14.003,54.92 0,16.221 2.821,31.331 8.478,45.339 5.643,14.008 13.382,26.047 23.221,36.126 9.825,10.071 21.619,17.936 35.387,23.588 13.754,5.652 28.995,8.479 45.706,8.479 39.315,0 69.046,-9.214 89.204,-27.64 20.15,-18.435 31.449,-48.051 33.913,-88.841 l -54.553,0 c 0,19.17 -4.794,35.505 -14.379,49.032 -9.581,13.509 -24.695,20.272 -45.339,20.272 -18.186,0 -34.035,-4.795 -47.548,-14.375 -13.523,-9.589 -20.273,-24.218 -20.273,-43.869 0,-17.692 4.79,-31.586 14.375,-41.647 9.581,-10.079 21.494,-18.322 35.754,-24.7 14.249,-6.395 29.858,-12.162 46.814,-17.324 16.956,-5.162 32.552,-11.925 46.813,-20.272 14.248,-8.364 26.174,-19.301 35.755,-32.81 9.584,-13.526 14.375,-32.066 14.375,-55.663 0,-20.159 -3.202,-37.964 -9.581,-53.45 -6.395,-15.478 -15.481,-28.637 -27.28,-39.433 -11.794,-10.823 -25.929,-18.934 -42.391,-24.332 -16.471,-5.407 -34.533,-8.111 -54.184,-8.111 -42.273,0 -72.743,11.672 -91.414,35.015 -18.684,23.343 -28.015,55.165 -28.015,95.473 l 54.552,0 c -0.989,-4.917 -1.474,-9.099 -1.474,-12.529"
         style="fill:#8d198f;fill-opacity:1;fill-rule:nonzero;stroke:none"
         id="path94"
         inkscape:connector-curvature="0" /><path
         d="m 2114.9619,987.7771 0,-179.887 c 9.825,18.181 23.334,31.445 40.544,39.81 17.201,8.355 35.872,12.537 56.031,12.537 29.489,0 52.71,-7.874 69.666,-23.596 16.957,-15.732 26.655,-38.331 29.123,-67.825 l 0,-318.477 -56.031,0 0,291.205 c 0,19.651 -4.183,35.872 -12.533,48.655 -8.361,12.774 -23.348,19.17 -44.968,19.17 -12.293,0 -23.478,-2.345 -33.545,-7.009 -10.079,-4.671 -18.683,-10.936 -25.802,-18.793 -7.131,-7.874 -12.66,-16.956 -16.589,-27.281 -3.941,-10.324 -5.896,-21.383 -5.896,-33.177 l 0,-272.77 -56.031,0 0,537.438 56.031,0 z"
         style="fill:#8d198f;fill-opacity:1;fill-rule:nonzero;stroke:none"
         id="path98"
         inkscape:connector-curvature="0" /><path
         d="m 973.6309,1087.8958 c -3.854,-13.57 -9.629,-25.758 -17.328,-36.572 -7.699,-10.824 -17.415,-19.52 -29.144,-26.126 -11.742,-6.597 -25.303,-9.895 -40.702,-9.895 -21.633,0 -39.049,5.135 -52.247,15.399 -13.194,10.262 -23.374,23.273 -30.522,39.048 -7.148,15.757 -11.821,33.081 -14.021,51.971 -2.205,18.881 -3.303,36.756 -3.303,53.616 0,16.869 1.374,34.464 4.121,52.802 2.752,18.33 7.788,35.111 15.124,50.326 7.34,15.207 17.608,27.771 30.806,37.666 13.202,9.905 30.246,14.848 51.145,14.848 13.202,0 25.299,-2.389 36.296,-7.148 11.003,-4.768 20.53,-11.269 28.601,-19.52 8.059,-8.25 14.38,-17.962 18.978,-29.144 4.576,-11.19 6.868,-23.194 6.868,-36.021 l 0,-10.456 -42.347,0 c 0,7.332 -0.822,14.848 -2.475,22.547 -1.65,7.7 -4.397,14.761 -8.251,21.174 -3.846,6.413 -8.71,11.636 -14.573,15.679 -5.87,4.024 -13.198,6.055 -22,6.055 -7.699,0 -15.219,-1.576 -22.547,-4.69 -7.336,-3.106 -13.019,-8.155 -17.047,-15.119 -8.44,-14.296 -13.387,-30.247 -14.853,-47.842 -1.466,-17.595 -2.2,-34.647 -2.2,-51.157 0,-7.332 0.087,-14.664 0.275,-21.987 0.184,-7.341 0.639,-14.673 1.378,-22.005 0.727,-8.793 2.105,-17.787 4.125,-26.948 2.009,-9.169 5.128,-17.595 9.345,-25.294 4.217,-7.7 9.904,-14.025 17.053,-18.978 7.148,-4.943 16.037,-7.419 26.676,-7.419 9.528,0 17.407,2.555 23.65,7.699 6.224,5.128 11.173,11.445 14.848,18.969 3.652,7.516 6.128,15.758 7.423,24.752 1.273,8.977 1.92,17.324 1.92,25.023 l 40.699,0 c 0,-13.938 -1.925,-27.691 -5.771,-41.253"
         style="fill:#8d198f;fill-opacity:1;fill-rule:nonzero;stroke:none"
         id="path102"
         inkscape:connector-curvature="0" /><path
         d="m 1069.0469,1424.4744 0,-134.189 c 7.332,13.562 17.411,23.457 30.246,29.704 12.831,6.221 26.765,9.344 41.801,9.344 22,0 39.323,-5.87 51.971,-17.594 12.647,-11.742 19.882,-28.602 21.729,-50.607 l 0,-237.579 -41.801,0 0,217.237 c 0,14.664 -3.123,26.756 -9.352,36.292 -6.235,9.537 -17.42,14.306 -33.55,14.306 -9.165,0 -17.512,-1.75 -25.019,-5.224 -7.519,-3.491 -13.942,-8.163 -19.253,-14.025 -5.319,-5.871 -9.44,-12.651 -12.371,-20.351 -2.94,-7.699 -4.401,-15.95 -4.401,-24.743 l 0,-203.492 -41.796,0 0,400.921 41.796,0 z"
         style="fill:#8d198f;fill-opacity:1;fill-rule:nonzero;stroke:none"
         id="path106"
         inkscape:connector-curvature="0" /><path
         inkscape:connector-curvature="0"
         id="path108"
         style="fill:#8d198f;fill-opacity:1;fill-rule:nonzero;stroke:none"
         d="m 1795.54,1023.553 -41.8,0 0,400.921 41.8,0 0,-400.921 z" /><path
         inkscape:connector-curvature="0"
         id="path110"
         style="fill:#8d198f;fill-opacity:1;fill-rule:nonzero;stroke:none"
         d="m 2164.973,1026.572 -212.714,0 0,41.795 212.714,0 0,-41.795 z" /><path
         inkscape:connector-curvature="0"
         id="path112"
         style="fill:#8d198f;fill-opacity:1;fill-rule:nonzero;stroke:none"
         d="m 1705.286,1026.572 -212.718,0 0,41.795 212.718,0 0,-41.795 z" /><path
         inkscape:connector-curvature="0"
         id="path114"
         style="fill:#8d198f;fill-opacity:1;fill-rule:nonzero;stroke:none"
         d="m 1462.116,1026.572 -212.715,0 0,41.795 212.715,0 0,-41.795 z" /><path
         d="m 2180.5117,1288.6409 0,34.639 42.894,0 0,40.15 c 0,21.261 6.326,37.036 18.977,47.299 12.648,10.263 29.235,15.399 49.771,15.399 6.234,0 12.647,-0.551 19.253,-1.654 l 0,-37.394 c -5.872,1.093 -11.926,1.644 -18.151,1.644 -3.299,0 -6.326,-0.183 -9.077,-0.551 -2.752,-0.358 -5.596,-1.461 -8.526,-3.289 -4.035,-2.573 -6.598,-5.968 -7.701,-10.176 -1.092,-4.226 -1.644,-8.522 -1.644,-12.922 l 0,-38.506 45.099,0 0,-34.639 -45.099,0 0,-265.088 -42.902,0 0,265.088 -42.894,0 z"
         style="fill:#8d198f;fill-opacity:1;fill-rule:nonzero;stroke:none"
         id="path126"
         inkscape:connector-curvature="0" /><path
         d="m 1357.5957,1329.7102 c -57.946,0 -104.931,-46.966 -104.931,-104.922 0,-57.956 46.985,-104.931 104.931,-104.931 57.947,0 104.927,46.975 104.927,104.931 0,57.956 -46.98,104.922 -104.927,104.922 m -1.666,-174.865 c -35.563,0 -64.396,30.562 -64.396,68.289 0,37.719 28.833,68.28 64.396,68.28 35.565,0 64.399,-30.561 64.399,-68.28 0,-37.727 -28.834,-68.289 -64.399,-68.289"
         style="fill:#8d198f;fill-opacity:1;fill-rule:nonzero;stroke:none"
         id="path130"
         inkscape:connector-curvature="0" /><path
         d="m 1595.7705,1329.7102 c -57.946,0 -104.926,-46.966 -104.926,-104.922 0,-57.956 46.98,-104.931 104.926,-104.931 57.947,0 104.927,46.975 104.927,104.931 0,57.956 -46.98,104.922 -104.927,104.922 m -1.671,-174.865 c -35.566,0 -64.395,30.562 -64.395,68.289 0,37.719 28.829,68.28 64.395,68.28 35.567,0 64.396,-30.561 64.396,-68.28 0,-37.727 -28.829,-68.289 -64.396,-68.289"
         style="fill:#8d198f;fill-opacity:1;fill-rule:nonzero;stroke:none"
         id="path134"
         inkscape:connector-curvature="0" /><path
         d="m 2058.7861,1329.7102 c -57.946,0 -104.927,-46.966 -104.927,-104.922 0,-57.956 46.981,-104.931 104.927,-104.931 57.947,0 104.931,46.975 104.931,104.931 0,57.956 -46.984,104.922 -104.931,104.922 m -1.662,-174.865 c -35.567,0 -64.396,30.562 -64.396,68.289 0,37.719 28.829,68.28 64.396,68.28 35.566,0 64.395,-30.561 64.395,-68.28 0,-37.727 -28.829,-68.289 -64.395,-68.289"
         style="fill:#8d198f;fill-opacity:1;fill-rule:nonzero;stroke:none"
         id="path138"
         inkscape:connector-curvature="0" /><path
         d="m 577.2246,1148.8347 c -0.188,-1.942 -0.263,-4.165 -0.263,-6.641 0,-10.63 1.409,-20.727 4.248,-30.29 2.83,-9.571 7.082,-17.988 12.752,-25.251 5.665,-7.27 12.761,-13.115 21.265,-17.542 8.5,-4.444 18.422,-6.991 29.77,-7.699 10.267,0 19.931,1.671 28.969,5.039 9.03,3.369 16.829,8.155 23.374,14.349 6.558,6.203 11.706,13.728 15.421,22.591 3.718,8.854 5.582,18.619 5.582,29.24 0,18.068 -4.345,32.338 -13.019,42.785 -8.688,10.446 -19.59,18.951 -32.692,25.513 -13.12,6.553 -27.197,12.398 -42.26,17.533 -15.057,5.145 -29.152,11.611 -42.254,19.415 -13.121,7.778 -24.013,17.875 -32.693,30.291 -8.683,12.397 -13.023,29.24 -13.023,50.501 0,33.309 9.209,59.977 27.643,79.995 18.427,20.01 44.29,30.028 77.608,30.028 34.362,0 59.71,-9.826 76.001,-29.503 16.3,-19.668 24.459,-46.153 24.459,-79.461 l -39.867,0 c 0,9.563 -1.334,18.609 -3.985,27.105 -2.665,8.513 -6.645,16.029 -11.956,22.591 -5.32,6.562 -11.79,11.776 -19.406,15.687 -7.625,3.894 -16.571,5.845 -26.843,5.845 -19.131,0 -34.643,-5.845 -46.508,-17.542 -11.881,-11.699 -17.808,-27.115 -17.808,-46.241 0,-18.426 4.426,-32.609 13.285,-42.53 8.859,-9.922 19.84,-17.893 32.959,-23.912 13.102,-6.038 27.372,-11.348 42.784,-15.942 15.417,-4.62 29.674,-10.726 42.793,-18.347 13.098,-7.612 24.096,-17.989 32.95,-31.095 8.855,-13.107 13.286,-31.358 13.286,-54.745 0,-17.726 -2.651,-33.755 -7.962,-48.104 -5.324,-14.349 -12.94,-26.677 -22.862,-36.94 -9.926,-10.28 -22.061,-18.26 -36.415,-23.92 -14.344,-5.661 -30.377,-8.505 -48.104,-8.505 -20.547,0 -37.731,3.369 -51.55,10.097 -13.829,6.728 -24.985,16.038 -33.493,27.919 -8.496,11.855 -14.533,25.767 -18.063,41.717 -3.548,15.95 -5.315,33.125 -5.315,51.56 l 41.454,0 c 0,-1.776 -0.096,-3.64 -0.262,-5.591"
         style="fill:#8d198f;fill-opacity:1;fill-rule:nonzero;stroke:none"
         id="path142"
         inkscape:connector-curvature="0" /></g><g
       id="g4699"
       transform="translate(0,-84.8)"><path
         d="m 1458.6113,2969.0413 0,-159.571 87.756,-327.523 c 27.246,5.547 53.8,12.914 79.716,21.68 l -87.669,327.191 -79.803,138.223 z"
         style="fill:#80cc28;fill-opacity:1;fill-rule:nonzero;stroke:none"
         id="path146"
         inkscape:connector-curvature="0" /><path
         d="m 1497.1084,2984.9646 41.306,-154.146 169.335,-293.314 c 24.769,12.319 48.664,26.092 71.552,41.288 l -169.37,293.341 -112.823,112.831 z"
         style="fill:#80cc28;fill-opacity:1;fill-rule:nonzero;stroke:none"
         id="path150"
         inkscape:connector-curvature="0" /><path
         d="m 1530.1465,3010.3372 79.785,-138.204 239.549,-239.54 c 20.727,18.172 40.325,37.587 58.638,58.184 l -239.768,239.767 -138.204,79.793 z"
         style="fill:#80cc28;fill-opacity:1;fill-rule:nonzero;stroke:none"
         id="path154"
         inkscape:connector-curvature="0" /><path
         d="m 1555.5107,3043.3748 112.84,-112.831 294.162,-169.842 c 15.355,22.783 29.188,46.66 41.656,71.341 l -294.52,170.036 -154.138,41.296 z"
         style="fill:#80cc28;fill-opacity:1;fill-rule:nonzero;stroke:none"
         id="path158"
         inkscape:connector-curvature="0" /><path
         d="m 1571.4521,3081.8723 138.196,-79.793 329.133,-88.195 c 8.924,25.863 16.396,52.392 22.092,79.602 l -329.842,88.386 -159.579,0 z"
         style="fill:#80cc28;fill-opacity:1;fill-rule:nonzero;stroke:none"
         id="path162"
         inkscape:connector-curvature="0" /><path
         d="m 1257.7529,3123.1692 -154.138,41.297 -349.387,0 c -0.595,-11.568 -0.927,-23.221 -0.927,-34.945 0,-16.038 0.769,-31.892 1.898,-47.649 l 348.434,0 154.12,41.297 z"
         style="fill:#80cc28;fill-opacity:1;fill-rule:nonzero;stroke:none"
         id="path166"
         inkscape:connector-curvature="0" /><path
         d="m 1576.8945,3123.1692 154.137,-41.297 342.029,-0.01 c 1.129,15.758 1.899,31.612 1.899,47.658 0,11.724 -0.324,23.377 -0.927,34.945 l -342.992,0 -154.146,-41.297 z"
         style="fill:#80cc28;fill-opacity:1;fill-rule:nonzero;stroke:none"
         id="path170"
         inkscape:connector-curvature="0" /><path
         d="m 1263.1953,3081.8723 -159.563,0 -335.878,-89.996 c 5.766,-27.193 13.264,-53.721 22.258,-79.549 l 334.995,89.759 138.188,79.786 z"
         style="fill:#80cc28;fill-opacity:1;fill-rule:nonzero;stroke:none"
         id="path174"
         inkscape:connector-curvature="0" /><path
         d="m 1279.1367,3043.384 -154.129,-41.298 -299.455,-172.895 c 12.581,-24.612 26.545,-48.402 42.015,-71.115 l 298.737,172.484 112.832,112.824 z"
         style="fill:#80cc28;fill-opacity:1;fill-rule:nonzero;stroke:none"
         id="path178"
         inkscape:connector-curvature="0" /><path
         d="m 1304.4922,3010.3372 -138.188,-79.777 -243.197,-243.205 c 18.445,-20.473 38.236,-39.687 59.085,-57.72 l 242.515,242.515 79.785,138.187 z"
         style="fill:#80cc28;fill-opacity:1;fill-rule:nonzero;stroke:none"
         id="path182"
         inkscape:connector-curvature="0" /><path
         d="m 1337.5381,2984.9827 -112.831,-112.833 -171.094,-296.34 c 23.011,-15.013 46.941,-28.715 71.815,-40.824 l 170.813,295.867 41.297,154.13 z"
         style="fill:#80cc28;fill-opacity:1;fill-rule:nonzero;stroke:none"
         id="path186"
         inkscape:connector-curvature="0" /><path
         d="m 1376.0088,2969.0061 -79.768,-138.153 -88.211,-329.202 c 25.986,-8.522 52.654,-15.504 79.943,-20.789 l 88.036,328.556 0,159.588 z"
         style="fill:#80cc28;fill-opacity:1;fill-rule:nonzero;stroke:none"
         id="path190"
         inkscape:connector-curvature="0" /><path
         d="m 1458.6113,2809.47 -41.288,154.111 -41.315,-154.163 c 0,0 0.259,-577.553 0.39,-577.562 1.383,-21.498 19.065,-38.568 40.899,-38.568 22.018,0 39.84,17.315 40.991,39.039 0.109,0.01 0.323,577.143 0.323,577.143"
         style="fill:#80cc28;fill-opacity:1;fill-rule:nonzero;stroke:none"
         id="path194"
         inkscape:connector-curvature="0" /><path
         d="m 2302.7227,3403.1658 -259.996,-69.663 -333.078,-89.252 299.542,172.94 232.199,134.058 -41.297,71.534 -231.622,-133.724 -300.12,-173.273 245.674,245.673 188.495,188.487 -58.41,58.411 -187.805,-187.805 -246.355,-246.355 174.689,302.561 132.308,229.172 -71.536,41.305 -131.983,-228.603 -175.005,-303.121 90.792,338.854 68.123,254.203 -79.794,21.384 -67.939,-253.557 -90.993,-339.579 0,351.881 0,262.183 -82.603,0 0,-261.693 0,-352.275 -91.29,340.691 -67.615,252.349 -79.794,-21.375 67.589,-252.235 91.325,-340.84 -176.466,305.65 -130.522,226.083 -71.534,-41.297 130.557,-226.135 176.44,-305.606 -249.323,249.313 -184.838,184.847 -58.411,-58.402 185.075,-185.066 249.094,-249.112 -304.783,175.976 -226.958,131.039 -41.297,-71.535 227.264,-131.222 304.477,-175.784 -338.932,90.81 -254.159,68.105 -21.367,-79.776 254.834,-68.289 338.241,-90.635 154.137,-41.297 -154.12,-41.296 159.563,0 -138.188,-79.787 154.129,41.298 -112.832,-112.823 138.188,79.776 -79.786,-138.187 112.831,112.833 -41.296,-154.13 79.767,138.153 0,-159.588 41.315,154.163 41.288,-154.111 0,159.571 79.802,-138.222 -41.305,154.146 112.823,-112.831 -79.785,138.203 138.204,-79.793 -112.84,112.831 154.138,-41.296 -138.197,79.794 159.58,0 -154.137,41.296 154.145,41.297 332.143,88.999 260.923,69.907 -21.383,79.794 z"
         style="fill:#8d198f;fill-opacity:1;fill-rule:nonzero;stroke:none"
         id="path198"
         inkscape:connector-curvature="0" /></g></g></svg>