<svg width='200' height='200' fill="#000000" xmlns="http://www.w3.org/2000/svg" xmlns:xlink="http://www.w3.org/1999/xlink" version="1.1" x="0px" y="0px" viewBox="0 0 100 100" enable-background="new 0 0 100 100" xml:space="preserve"><path fill="#000000" d="M68.751,39.362c-1.128-0.306-2.2-0.224-3.15,0.196c-0.117-4.016-1.575-5.646-5.378-6.251  c-2.459-0.39-4.001,0.766-5.017,2.34c-0.19-0.898-0.531-1.763-1.104-2.514c-0.936-1.226-2.328-1.962-4.138-2.188  c-4.729-0.595-5.383,4.507-5.771,7.554c-0.028,0.222-0.06,0.469-0.094,0.722c-0.364-2.874-0.674-7.976-0.925-15.254  c-0.25-7.265-0.415-12.065-2.924-14.399c-1.048-0.975-2.448-1.427-4.176-1.37c-1.443,0.056-3.365,0.997-4.33,5.166  c-0.56,2.421-0.776,5.761-0.626,9.66c0.088,2.287,0.11,4.227,0.131,6.104c0.037,3.292,0.071,6.402,0.456,10.853  c0.044,0.506,0.083,1.549,0.126,2.909c-0.102,0.066-0.208,0.124-0.292,0.218c-0.665,0.742-1.302,1.427-1.902,2.073  c-3.86,4.155-6.649,7.157-4.888,12.613c0.825,2.56,2.122,5.048,4.27,9.171c1.027,1.971,2.249,4.317,3.705,7.22  c2.504,4.995,1.952,17.841,1.946,17.971c-0.035,0.782,0.569,1.445,1.352,1.48c0.022,0.001,0.044,0.001,0.065,0.001  c0.753,0,1.38-0.593,1.415-1.353c0.025-0.558,0.591-13.717-2.244-19.371c-1.463-2.918-2.692-5.278-3.725-7.259  c-2.079-3.991-3.334-6.4-4.086-8.731c-1.202-3.727,0.342-5.59,4.267-9.814c0.078-0.083,0.161-0.174,0.24-0.259  c0.109,3.402,0.262,7.37,0.533,10.54c0.063,0.739,0.682,1.297,1.411,1.297c0.04,0,0.081-0.002,0.122-0.005  c0.78-0.066,1.358-0.752,1.292-1.533c-0.329-3.854-0.483-8.983-0.597-12.729c-0.068-2.271-0.118-3.913-0.185-4.684  c-0.376-4.345-0.41-7.403-0.446-10.64c-0.021-1.896-0.042-3.856-0.132-6.182c-0.141-3.651,0.051-6.733,0.555-8.912  c0.418-1.809,1.061-2.948,1.676-2.971c1.269-0.048,1.829,0.326,2.137,0.613c1.648,1.532,1.813,6.337,2.022,12.421  c0.661,19.16,1.496,20.027,3.32,20.161c2.644,0.195,3.029-2.891,3.344-5.369c0.533-4.192,1.099-5.282,2.607-5.099  c1.042,0.13,1.773,0.488,2.236,1.095c1.095,1.436,0.692,4.23,0.452,5.899c-0.206,1.432-0.463,3.214,1.208,3.461  c1.707,0.247,2.193-1.543,2.662-3.279c0.927-3.434,1.724-5.13,3.607-4.827c2.364,0.376,3.106,0.681,2.992,4.581  c-0.041,1.372-0.125,1.789-0.67,4.498l-0.172,0.852c-0.154,0.768,0.343,1.515,1.11,1.669c0.768,0.157,1.515-0.343,1.669-1.11  l0.171-0.85c0.054-0.268,0.101-0.499,0.146-0.729c0.003-0.016,0.01-0.03,0.013-0.047c0.072-0.421,0.539-2.118,1.502-2.732  c0.254-0.162,0.684-0.352,1.467-0.14c2.289,0.623,2.973,3.083,2.442,8.773c-0.569,6.1-1.457,10.867-2.714,14.574  c-1.455,4.29-3.187,5.832-4.578,7.072c-1.201,1.07-2.443,2.176-2.426,4.488c0.053,7.424,0.175,15.236,0.175,15.236  c0.012,0.775,0.644,1.396,1.417,1.396c0.007,0,0.015,0,0.022,0c0.783-0.012,1.407-0.656,1.395-1.439  c0-0.002-0.121-7.801-0.174-15.212c-0.007-0.985,0.325-1.325,1.477-2.351c1.466-1.306,3.681-3.28,5.376-8.278  c1.329-3.919,2.262-8.897,2.852-15.22C73.583,47.797,74.231,40.854,68.751,39.362z"/></svg>