<svg width='200' height='200' fill="#000000" xmlns="http://www.w3.org/2000/svg" xmlns:xlink="http://www.w3.org/1999/xlink" version="1.1" x="0px" y="0px" viewBox="0 0 100 100" enable-background="new 0 0 100 100" xml:space="preserve"><path fill="#000000" d="M71.299,38.46c-0.951-0.232-1.893-0.093-2.754,0.362c0.112-2.203-0.304-4.019-1.246-5.297  c-0.787-1.069-1.925-1.742-3.289-1.945c-1.379-0.206-3.137-0.308-4.507,0.736c-0.911,0.694-1.433,1.747-1.755,2.898  c0.29-5.935,0.802-15.072,1.057-17.762c0.505-5.336,0.009-8.509-1.609-10.287c-0.905-0.995-2.114-1.5-3.595-1.5  c-4.738,0-5.184,5.099-6.16,16.27l-0.117,1.336c-0.225,2.557-0.394,5.069-0.544,7.286c-0.202,2.994-0.422,6.249-0.737,8.384  c-0.543-2.369-1.186-6.454-1.673-12.127L44.3,25.997c-0.791-9.262-1.354-15.385-7.514-15.166c-4.224,0.146-4.379,6.576-4.177,13.15  c0,0.003,0.001,0.006,0.001,0.009c0,0.001,0,0.001,0,0.002c0.083,2.174,0.104,4.02,0.123,5.804  c0.035,3.146,0.068,6.117,0.438,10.371c0.154,1.796,0.107,13.588-0.112,17.204c-0.002,0.033-0.004,0.063-0.008,0.089  c-1.055-0.12-4.366-2.104-8.818-6.989c-2.406-2.641-5.235-4.132-7.771-4.098c-1.459,0.021-2.72,0.566-3.551,1.534  c-2.74,3.188,2.456,9.852,4.113,11.818c1.05,1.245,2.151,2.615,3.301,4.045c3.975,4.944,8.479,10.547,13.498,14.377  c2.1,1.603,2.57,8.876,2.233,13.529c-0.056,0.78,0.531,1.459,1.312,1.516c0.035,0.002,0.069,0.003,0.104,0.003  c0.735,0,1.357-0.568,1.411-1.314c0.096-1.303,0.809-12.822-3.342-15.988c-4.744-3.621-9.134-9.082-13.007-13.9  c-1.165-1.449-2.28-2.836-3.343-4.096c-3.054-3.621-4.757-7.416-4.131-8.144c0.378-0.44,0.992-0.54,1.442-0.546  c0.018,0,0.034,0,0.052,0c1.687,0,3.768,1.182,5.581,3.173c2.489,2.73,8.65,8.95,12.018,7.759c0.602-0.212,1.627-0.832,1.734-2.596  c0.213-3.512,0.286-15.532,0.106-17.619c-0.36-4.148-0.393-7.067-0.427-10.158c-0.02-1.799-0.041-3.66-0.125-5.865  c0-0.002,0-0.004,0-0.006c-0.272-8.848,0.785-10.208,1.441-10.23c3.2-0.1,3.771,2.979,4.59,12.574l0.07,0.818  c0.57,6.631,1.614,14.843,3.354,16.301c0.376,0.316,0.836,0.464,1.299,0.425c2.545-0.227,2.798-3.976,3.41-13.034  c0.149-2.203,0.318-4.701,0.54-7.229l0.117-1.337C51.114,12.449,51.542,8.5,53.601,8.5c0.876,0,1.274,0.326,1.498,0.572  c0.992,1.091,1.29,3.82,0.884,8.112c-0.34,3.592-1.092,17.729-1.253,22.059c-0.024,0.64-0.062,1.18-0.094,1.632  c-0.106,1.509-0.238,3.386,1.788,3.689c0.562,0.08,1.134-0.069,1.605-0.429c1.046-0.8,1.675-2.67,2.103-6.252  c0.221-1.838,0.577-2.922,1.09-3.314c0.399-0.304,1.172-0.365,2.369-0.186c0.628,0.094,1.081,0.355,1.426,0.823  c0.687,0.931,0.893,2.677,0.568,4.79c-0.15,0.977-0.482,2.577-0.867,4.43c-0.103,0.494-0.209,1.012-0.319,1.546  c-0.019,0.086-0.034,0.157-0.042,0.198c-0.001,0.005-0.001,0.011-0.002,0.016c-0.1,0.486-0.2,0.982-0.304,1.496  c-0.154,0.768,0.344,1.515,1.11,1.668c0.095,0.019,0.188,0.028,0.281,0.028c0.661,0,1.253-0.465,1.388-1.139  c0.109-0.543,0.217-1.071,0.322-1.584c0.343-1.646,1.334-4.476,2.606-5.285c0.293-0.186,0.555-0.232,0.87-0.156  c2.521,0.613,2.629,1.966,2.307,5.99c-0.054,0.672-0.109,1.366-0.142,2.076c-0.276,6.21-0.843,7.892-2.524,12.882l-0.485,1.447  c-1.323,3.955-2.944,6.254-4.248,8.102c-1.281,1.816-2.387,3.384-2.37,5.557c0.05,7.083,0.167,14.534,0.167,14.534l2.834-0.045  c0,0-0.117-7.438-0.167-14.509c-0.009-1.21,0.595-2.12,1.853-3.902c1.336-1.894,3.165-4.487,4.619-8.837l0.484-1.441  c1.729-5.131,2.376-7.051,2.67-13.66c0.03-0.675,0.084-1.336,0.135-1.976C76.051,43.806,76.38,39.696,71.299,38.46z"/></svg>